<?xml version="1.0" encoding="UTF-8" standalone="no"?>
<svg
   xmlns:dc="http://purl.org/dc/elements/1.1/"
   xmlns:cc="http://creativecommons.org/ns#"
   xmlns:rdf="http://www.w3.org/1999/02/22-rdf-syntax-ns#"
   xmlns:svg="http://www.w3.org/2000/svg"
   xmlns="http://www.w3.org/2000/svg"
   id="svg3547"
   version="1.1"
   width="570"
   height="135"
   viewBox="0 0 570 135">
  <metadata
     id="metadata3553">
    <rdf:RDF>
      <cc:Work
         rdf:about="">
        <dc:format>image/svg+xml</dc:format>
        <dc:type
           rdf:resource="http://purl.org/dc/dcmitype/StillImage" />
        <dc:title></dc:title>
      </cc:Work>
    </rdf:RDF>
  </metadata>
  <defs
     id="defs3551">
    <filter
       id="filter4821"
       style="color-interpolation-filters:sRGB;">
      <feGaussianBlur
         id="feGaussianBlur4823"
         result="result0"
         in="SourceGraphic"
         stdDeviation="6" />
      <feDiffuseLighting
         id="feDiffuseLighting4825"
         result="result5"
         surfaceScale="4"
         diffuseConstant="1"
         lighting-color="rgb(255,255,255)">
        <feDistantLight
           id="feDistantLight4827"
           azimuth="235"
           elevation="45" />
      </feDiffuseLighting>
      <feComposite
         id="feComposite4829"
         operator="arithmetic"
         result="fbSourceGraphic"
         in="result5"
         in2="SourceGraphic"
         k1="1.4" />
      <feGaussianBlur
         id="feGaussianBlur4831"
         stdDeviation="6"
         in="fbSourceGraphic"
         result="result0" />
      <feSpecularLighting
         id="feSpecularLighting4833"
         in="result0"
         result="result1"
         lighting-color="rgb(255,255,255)"
         surfaceScale="4"
         specularConstant="1"
         specularExponent="25">
        <feDistantLight
           id="feDistantLight4835"
           elevation="45"
           azimuth="235" />
      </feSpecularLighting>
      <feComposite
         id="feComposite4837"
         result="result4"
         in2="result1"
         in="fbSourceGraphic"
         operator="arithmetic"
         k2="1"
         k3="1" />
      <feComposite
         id="feComposite4839"
         in="result4"
         in2="SourceGraphic"
         result="result2"
         operator="in" />
    </filter>
    <filter
       id="filter4863"
       style="color-interpolation-filters:sRGB;"
       x="-0.25"
       y="-0.25"
       width="1.5"
       height="1.5">
      <feBlend
         id="feBlend4865"
         mode="screen"
         result="result1"
         in2="SourceGraphic" />
      <feGaussianBlur
         id="feGaussianBlur4867"
         result="result6"
         stdDeviation="7" />
      <feComposite
         id="feComposite4869"
         result="result7"
         in2="result6"
         in="result6"
         operator="xor" />
      <feComposite
         id="feComposite4871"
         result="result92"
         in="result6"
         operator="atop"
         in2="result1" />
      <feComposite
         id="feComposite4873"
         in2="result92"
         operator="xor"
         in="result7"
         result="result4" />
      <feGaussianBlur
         id="feGaussianBlur4875"
         in="result4"
         stdDeviation="0.7"
         result="result3" />
      <feSpecularLighting
         id="feSpecularLighting4877"
         surfaceScale="4"
         specularConstant="1.5"
         specularExponent="50"
         result="result5">
        <fePointLight
           id="fePointLight4879"
           x="-5000"
           y="-8000"
           z="20000" />
      </feSpecularLighting>
      <feComposite
         id="feComposite4881"
         result="result93"
         in2="SourceGraphic"
         operator="arithmetic"
         k2="1"
         k3="1"
         in="result3" />
      <feComposite
         id="feComposite4883"
         result="result94"
         in2="result93"
         operator="atop"
         in="result5" />
      <feBlend
         id="feBlend4885"
         in2="result94"
         mode="multiply" />
    </filter>
    <filter
       id="filter4887"
       style="color-interpolation-filters:sRGB;"
       x="-0.25"
       y="-0.25"
       width="1.5"
       height="1.5">
      <feBlend
         id="feBlend4889"
         mode="screen"
         result="result1"
         in2="SourceGraphic" />
      <feGaussianBlur
         id="feGaussianBlur4891"
         result="result6"
         stdDeviation="2" />
      <feComposite
         id="feComposite4893"
         result="result7"
         in2="result1"
         in="result6"
         operator="xor" />
      <feComposite
         id="feComposite4895"
         in2="result7"
         operator="xor"
         in="result7"
         result="result4" />
      <feGaussianBlur
         id="feGaussianBlur4897"
         in="result4"
         stdDeviation="3"
         result="result3" />
      <feSpecularLighting
         id="feSpecularLighting4899"
         in="result3"
         surfaceScale="6"
         specularConstant="1.5"
         specularExponent="55"
         result="result5">
        <fePointLight
           id="fePointLight4901"
           x="-5000"
           y="-8000"
           z="20000" />
      </feSpecularLighting>
      <feComposite
         id="feComposite4903"
         result="result92"
         in2="SourceGraphic"
         operator="arithmetic"
         k2="1.5"
         k3="1"
         in="result3" />
      <feComposite
         id="feComposite4905"
         result="result93"
         in2="result92"
         operator="atop"
         in="result5" />
      <feBlend
         id="feBlend4907"
         in2="result93"
         mode="multiply" />
    </filter>
    <filter
       id="filter4961"
       style="color-interpolation-filters:sRGB;">
      <feMorphology
         id="feMorphology4963"
         result="result91"
         in="SourceAlpha"
         radius="4.3" />
      <feComposite
         id="feComposite4965"
         in2="result91"
         in="SourceGraphic"
         operator="out" />
      <feGaussianBlur
         id="feGaussianBlur4967"
         stdDeviation="1.2"
         result="result0" />
      <feDiffuseLighting
         id="feDiffuseLighting4969"
         diffuseConstant="1">
        <feDistantLight
           id="feDistantLight4971"
           azimuth="225"
           elevation="66" />
      </feDiffuseLighting>
      <feBlend
         id="feBlend4973"
         in2="SourceGraphic"
         mode="multiply" />
      <feComposite
         id="feComposite4975"
         in2="SourceAlpha"
         operator="in" />
    </filter>
    <filter
       id="filter4977"
       style="color-interpolation-filters:sRGB;"
       height="1.5"
       width="1.5"
       y="-0.25"
       x="-0.25">
      <feBlend
         id="feBlend4979"
         result="result1"
         mode="screen"
         in2="SourceGraphic" />
      <feGaussianBlur
         id="feGaussianBlur4981"
         result="result6"
         stdDeviation="8" />
      <feComposite
         id="feComposite4983"
         in2="SourceGraphic"
         in="result6"
         operator="xor" />
      <feGaussianBlur
         id="feGaussianBlur4985"
         result="result2"
         stdDeviation="5" />
      <feComposite
         id="feComposite4987"
         result="result92"
         in2="result1"
         operator="atop" />
      <feComposite
         id="feComposite4989"
         in2="result92"
         result="result4"
         in="result2"
         operator="xor" />
      <feGaussianBlur
         id="feGaussianBlur4991"
         in="result4"
         result="result3"
         stdDeviation="1" />
      <feSpecularLighting
         id="feSpecularLighting4993"
         result="result5"
         specularExponent="45"
         specularConstant="1.5"
         surfaceScale="3">
        <fePointLight
           id="fePointLight4995"
           z="20000"
           y="-8000"
           x="-5000" />
      </feSpecularLighting>
      <feComposite
         id="feComposite4997"
         result="result93"
         in2="SourceGraphic"
         operator="in" />
      <feComposite
         id="feComposite4999"
         result="result94"
         in2="result93"
         in="result3"
         k3="2"
         k2="1"
         operator="arithmetic" />
      <feComposite
         id="feComposite5001"
         result="result95"
         in2="result94"
         in="result5"
         operator="atop" />
      <feBlend
         id="feBlend5003"
         in2="result95"
         mode="screen" />
    </filter>
    <filter
       id="filter5009"
       style="color-interpolation-filters:sRGB;"
       height="1.5"
       width="1.5"
       y="-0.25"
       x="-0.25">
      <feGaussianBlur
         id="feGaussianBlur5011"
         result="result1"
         stdDeviation="1" />
      <feComposite
         id="feComposite5013"
         operator="in"
         result="result4"
         in2="result1"
         in="result1" />
      <feGaussianBlur
         id="feGaussianBlur5015"
         in="result4"
         result="result6"
         stdDeviation="7" />
      <feComposite
         id="feComposite5017"
         result="result8"
         in2="result4"
         in="result6"
         operator="over" />
      <feComposite
         id="feComposite5019"
         in2="result8"
         in="result6"
         result="fbSourceGraphic"
         operator="in" />
      <feSpecularLighting
         id="feSpecularLighting5021"
         in="fbSourceGraphic"
         result="result1"
         lighting-color="rgb(255,255,255)"
         surfaceScale="2.5"
         specularConstant="2"
         specularExponent="45">
        <fePointLight
           id="fePointLight5023"
           x="-5000"
           y="-10000"
           z="20000" />
      </feSpecularLighting>
      <feComposite
         id="feComposite5025"
         in2="fbSourceGraphic"
         in="result1"
         result="result2"
         operator="in" />
      <feComposite
         id="feComposite5027"
         in2="result2"
         in="fbSourceGraphic"
         result="result4"
         operator="arithmetic"
         k2="1.2"
         k3="1.5" />
      <feComposite
         id="feComposite5029"
         result="result9"
         in2="result4"
         in="result9"
         operator="over" />
      <feBlend
         id="feBlend5031"
         in2="result9"
         mode="screen" />
    </filter>
    <filter
       id="filter5033"
       style="color-interpolation-filters:sRGB;">
      <feGaussianBlur
         id="feGaussianBlur5035"
         result="result0"
         in="SourceAlpha"
         stdDeviation="2.3" />
      <feMorphology
         id="feMorphology5037"
         result="result1"
         radius="6.6"
         in="SourceAlpha" />
      <feGaussianBlur
         id="feGaussianBlur5039"
         in="result1"
         stdDeviation="8.9" />
      <feColorMatrix
         id="feColorMatrix5041"
         result="result91"
         values="1 0 0 0 0 0 1 0 0 0 0 0 1 0 0 0 0 0 0.3 0" />
      <feComposite
         id="feComposite5043"
         in2="result91"
         result="result2"
         operator="out"
         in="result0" />
      <feGaussianBlur
         id="feGaussianBlur5045"
         result="result4"
         stdDeviation="1.7" />
      <feDiffuseLighting
         id="feDiffuseLighting5047"
         surfaceScale="10">
        <feDistantLight
           id="feDistantLight5049"
           elevation="45"
           azimuth="225" />
      </feDiffuseLighting>
      <feBlend
         id="feBlend5051"
         mode="multiply"
         in2="SourceGraphic" />
      <feComposite
         id="feComposite5053"
         result="result3"
         operator="in"
         in2="SourceAlpha" />
      <feSpecularLighting
         id="feSpecularLighting5055"
         specularExponent="17.9"
         surfaceScale="5"
         in="result4">
        <feDistantLight
           id="feDistantLight5057"
           elevation="45"
           azimuth="225" />
      </feSpecularLighting>
      <feComposite
         result="fbSourceGraphic"
         id="feComposite5059"
         operator="atop"
         in2="result3" />
      <feColorMatrix
         id="feColorMatrix5304"
         values="0 0 0 -1 0 0 0 0 -1 0 0 0 0 -1 0 0 0 0 1 0"
         in="fbSourceGraphic"
         result="fbSourceGraphicAlpha" />
      <feFlood
         in="fbSourceGraphic"
         result="flood"
         flood-color="rgb(0,0,0)"
         flood-opacity="0.662745"
         id="feFlood5306" />
      <feComposite
         result="composite1"
         operator="in"
         in="flood"
         in2="fbSourceGraphic"
         id="feComposite5308" />
      <feGaussianBlur
         result="blur"
         stdDeviation="3"
         in="composite1"
         id="feGaussianBlur5310" />
      <feOffset
         result="offset"
         dy="6"
         dx="6"
         id="feOffset5312" />
      <feComposite
         result="composite2"
         operator="over"
         in="fbSourceGraphic"
         in2="offset"
         id="feComposite5314" />
    </filter>
    <filter
       id="filter5033-3"
       style="color-interpolation-filters:sRGB">
      <feGaussianBlur
         id="feGaussianBlur5035-8"
         result="result0"
         in="SourceAlpha"
         stdDeviation="2.3" />
      <feMorphology
         id="feMorphology5037-3"
         result="result1"
         radius="6.6"
         in="SourceAlpha" />
      <feGaussianBlur
         id="feGaussianBlur5039-3"
         in="result1"
         stdDeviation="8.9" />
      <feColorMatrix
         id="feColorMatrix5041-3"
         result="result91"
         values="1 0 0 0 0 0 1 0 0 0 0 0 1 0 0 0 0 0 0.3 0" />
      <feComposite
         id="feComposite5043-0"
         in2="result91"
         result="result2"
         operator="out"
         in="result0" />
      <feGaussianBlur
         id="feGaussianBlur5045-4"
         result="result4"
         stdDeviation="1.7" />
      <feDiffuseLighting
         id="feDiffuseLighting5047-8"
         surfaceScale="10">
        <feDistantLight
           id="feDistantLight5049-1"
           elevation="45"
           azimuth="225" />
      </feDiffuseLighting>
      <feBlend
         id="feBlend5051-0"
         mode="multiply"
         in2="SourceGraphic" />
      <feComposite
         id="feComposite5053-3"
         result="result3"
         operator="in"
         in2="SourceAlpha" />
      <feSpecularLighting
         id="feSpecularLighting5055-5"
         specularExponent="17.89999962"
         surfaceScale="5"
         in="result4">
        <feDistantLight
           id="feDistantLight5057-7"
           elevation="45"
           azimuth="225" />
      </feSpecularLighting>
      <feComposite
         id="feComposite5059-7"
         operator="atop"
         in2="result3" />
    </filter>
  </defs>
  <path
     style="fill:#f9f9f9;filter:url(#filter5033)"
     d="m 453.75,109.05836 0,-14.691647 L 442.13392,72.268636 430.51786,50.170559 414.012,83.21028 397.50614,116.25 l -11.27848,0 -11.27847,0 2.69621,-5.3125 c 1.48292,-2.92187 12.11587,-23.03125 23.62878,-44.6875 11.51291,-21.65625 22.85879,-43.220996 25.21309,-47.921657 l 4.28054,-8.5466576 16.16316,28.0312136 16.16317,28.031212 11.70182,-20.109556 c 6.436,-11.060255 13.15383,-23.030731 14.9285,-26.601056 l 3.22669,-6.491503 8.918,16.491503 C 510.88792,45.811346 514.85469,53.002707 524.41113,70 529.9719,79.890534 547.5,114.51445 547.5,115.60834 c 0,0.35291 -5.2643,0.64166 -11.69845,0.64166 l -11.69845,0 L 508.05682,81.75275 492.01056,47.255501 480.4467,70.19025 468.88284,93.125 l -0.0664,15.3125 -0.0664,15.3125 -7.5,0 -7.5,0 0,-14.69164 z M 11.25,108.75 l 0,-7.5 20.431265,0 20.431266,0 2.068734,-2.285926 2.068735,-2.285925 0,-9.996183 0,-9.996181 -2.893064,-2.717892 -2.893063,-2.717893 -11.830548,0 -11.830546,0 -7.776389,-7.846131 -7.77639,-7.846133 0,-14.377478 0,-14.377479 7.846131,-7.776389 7.846133,-7.77639 22.153867,0 22.153869,0 0,7.5 0,7.5 -19.782107,0 -19.782108,0 -2.717892,2.893064 -2.717893,2.893063 0,9.389044 0,9.389044 2.893064,2.717893 2.893063,2.717892 11.830548,0 11.830546,0 7.776389,7.846131 7.77639,7.846133 0,14.377479 0,14.377477 -7.846131,7.77639 -7.846133,7.77639 -22.153867,0 -22.153869,0 0,-7.5 z m 75,-45 0,-52.5 22.22361,0 22.22361,0 7.77639,7.846131 7.77639,7.846133 0,15.173831 0,15.173831 -5.16,4.0868 -5.16001,4.0868 5.17936,4.455737 5.17936,4.455737 -0.0194,15.04699 -0.0193,15.04699 -5.98044,5.89051 -5.98044,5.89051 -24.01956,0 -24.01956,0 0,-52.5 z m 42.10694,34.782108 2.89306,-2.717893 0,-9.389044 0,-9.389044 -2.71789,-2.893063 -2.7179,-2.893064 -9.38904,0 -9.38904,0 -2.89307,2.717893 -2.89306,2.717892 0,12.282107 0,12.282108 12.10694,0 12.10694,0 2.89306,-2.717892 z m 0,-45 2.89306,-2.717893 0,-9.389044 0,-9.389043 -2.71789,-2.893064 -2.7179,-2.893064 -12.2821,0 -12.28211,0 0,13.022766 0,13.022765 0.75874,1.977235 0.75873,1.977234 11.3482,0 11.34821,0 2.89306,-2.717893 z M 176.25,71.25 l 0,-45 -7.5,0 -7.5,0 0,-7.5 0,-7.5 24.375,0 24.375,0 0,7.5 0,7.5 -7.5,0 -7.5,0 0,45 0,45 -9.375,0 -9.375,0 0,-45 z m 52.77639,37.15387 -7.77639,-7.84613 0,-36.877482 0,-36.877479 7.84614,-7.776389 7.84612,-7.77639 25.90388,0 25.90386,0 0,7.5 0,7.5 -21.65711,0 -21.6571,0 -2.7179,2.893064 -2.71789,2.893063 0,31.889044 0,31.889044 2.89306,2.717892 2.89306,2.717893 21.48194,0 21.48194,0 0,7.5 0,7.5 -25.97361,0 -25.97361,0 -7.77639,-7.84613 z m 98.58465,3.15863 C 326.93161,108.98438 320.97206,86.34375 314.36759,61.25 307.76311,36.15625 302.07191,14.640625 301.72049,13.4375 l -0.63897,-2.1875 9.41107,0 9.41105,0 1.21223,4.6875 c 0.66674,2.578125 4.10209,15.65625 7.63413,29.0625 3.53204,13.40625 6.96739,26.484375 7.63413,29.0625 l 1.21223,4.6875 2.35488,0 2.35488,0 1.24957,-4.0625 c 3.58037,-11.640232 9.27985,-30.539742 12.72238,-42.1875 2.13352,-7.21875 4.44988,-14.953125 5.14747,-17.1875 l 1.26833,-4.0625 8.73731,0 8.7373,0 -0.64499,2.1875 C 379.16874,14.640625 372.63317,37.28125 365,63.75 c -7.63318,26.46875 -14.16874,49.10938 -14.52349,50.3125 l -0.64498,2.1875 -10.49258,0 -10.49259,0 -1.23532,-4.6875 z"
     id="path4375" />
  <path
     style="fill:#f9f9f9;fill-opacity:0.60843372"
     d="m 453.61764,109.04988 0,-14.691662 -11.61608,-22.09807 -11.61606,-22.098081 -16.50586,33.039721 -16.50586,33.039732 -11.27848,0 -11.27847,0 2.69621,-5.3125 c 1.48292,-2.92187 12.11587,-23.031262 23.62878,-44.687512 11.51291,-21.65625 22.85879,-43.220996 25.21309,-47.921657 l 4.28054,-8.546657 16.16316,28.031213 16.16317,28.031212 11.70182,-20.109556 c 6.436,-11.060255 13.15383,-23.030731 14.9285,-26.601056 l 3.22669,-6.491503 8.918,16.491503 c 9.01877,16.677847 12.98554,23.869208 22.54198,40.866501 5.56077,9.89053 23.08887,44.514462 23.08887,45.608352 0,0.35291 -5.2643,0.64166 -11.69845,0.64166 l -11.69845,0 -16.04628,-34.497262 -16.04626,-34.497249 -11.56386,22.934749 -11.56386,22.93475 -0.0664,15.312512 -0.0664,15.3125 -7.5,0 -7.5,0 0,-14.69164 z m -442.5,-0.30836 0,-7.50001 20.431265,0 20.431266,0 2.068734,-2.285932 2.068735,-2.28592 0,-9.99618 0,-9.99619 -2.893064,-2.71789 -2.893063,-2.71789 -11.830548,0 -11.830546,0 -7.776389,-7.846131 -7.77639,-7.846133 0,-14.377478 0,-14.377479 7.846131,-7.776389 7.846133,-7.77639 22.153867,0 22.153869,0 0,7.5 0,7.5 -19.782107,0 -19.782108,0 -2.717892,2.893064 -2.717893,2.893063 0,9.389044 0,9.389044 2.893064,2.717893 2.893063,2.717892 11.830548,0 11.830546,0 7.776389,7.846131 7.77639,7.846129 0,14.37748 0,14.377482 -7.84613,7.7764 -7.846134,7.77639 -22.153867,0 -22.153869,0 0,-7.5 z m 75,-45.000012 0,-52.5 22.22361,0 22.22361,0 7.77639,7.846131 7.77639,7.846133 0,15.173831 0,15.173831 -5.16,4.0868 -5.16001,4.0868 5.17936,4.455734 5.17936,4.45574 -0.0194,15.04699 -0.0193,15.047002 -5.98044,5.89051 -5.98044,5.89051 -24.01956,0 -24.01956,0 0,-52.500012 z m 42.10694,34.7821 2.89306,-2.71789 0,-9.38904 0,-9.38904 -2.71789,-2.89307 -2.7179,-2.89306 -9.38904,0 -9.38904,0 -2.89307,2.71789 -2.89306,2.71789 0,12.28211 0,12.282112 12.10694,0 12.10694,0 2.89306,-2.717902 z m 0,-44.999992 2.89306,-2.717893 0,-9.389044 0,-9.389043 -2.71789,-2.893064 -2.7179,-2.893064 -12.2821,0 -12.28211,0 0,13.022766 0,13.022765 0.75874,1.977235 0.75873,1.977234 11.3482,0 11.34821,0 2.89306,-2.717893 z m 47.89306,17.717892 0,-45 -7.5,0 -7.5,0 0,-7.5 0,-7.5 24.375,0 24.375,0 0,7.5 0,7.5 -7.5,0 -7.5,0 0,45 0,45.000012 -9.375,0 -9.375,0 0,-45.000012 z m 52.77639,37.153882 -7.77639,-7.84614 0,-36.877484 0,-36.877479 7.84614,-7.776389 7.84612,-7.77639 25.90388,0 25.90386,0 0,7.5 0,7.5 -21.65711,0 -21.6571,0 -2.7179,2.893064 -2.71789,2.893063 0,31.889044 0,31.889039 2.89306,2.71789 2.89306,2.717902 21.48194,0 21.48194,0 0,7.50001 0,7.5 -25.97361,0 -25.97361,0 -7.77639,-7.84613 z m 98.58465,3.15863 c -0.67943,-2.57812 -6.63898,-25.218762 -13.24345,-50.312512 -6.60448,-25.09375 -12.29568,-46.609375 -12.6471,-47.8125 l -0.63897,-2.1875 9.41107,0 9.41105,0 1.21223,4.6875 c 0.66674,2.578125 4.10209,15.65625 7.63413,29.0625 3.53204,13.40625 6.96739,26.48437 7.63413,29.0625 l 1.21223,4.6875 2.35488,0 2.35488,0 1.24957,-4.0625 c 3.58037,-11.640232 9.27985,-30.539742 12.72238,-42.1875 2.13352,-7.21875 4.44988,-14.953125 5.14747,-17.1875 l 1.26833,-4.0625 8.73731,0 8.7373,0 -0.64499,2.1875 c -0.35475,1.203125 -6.89032,23.84375 -14.52349,50.3125 -7.63318,26.46875 -14.16874,49.109392 -14.52349,50.312512 l -0.64498,2.1875 -10.49258,0 -10.49259,0 -1.23532,-4.6875 z"
     id="path4375-2" />
</svg>
